<svg width="40" height="40" viewBox="0 0 40 40" fill="none" xmlns="http://www.w3.org/2000/svg">
  <!-- Background gradient circle -->
  <rect width="40" height="40" rx="20" fill="url(#paint0_linear_72_305)"/>
  <rect width="40" height="40" rx="20" fill="url(#paint1_linear_72_305)"/>
  
  <!-- Horizon chatbot logo elements -->
  <!-- Rising/setting sun element -->
  <circle cx="20" cy="16" r="7" fill="white"/>
  
  <!-- Horizon line -->
  <path d="M8 24C8 24 12 22 20 22C28 22 32 24 32 24V28C32 28 28 26 20 26C12 26 8 28 8 28V24Z" fill="white"/>
  
  <!-- Chat bubble element -->
  <path d="M28 18C28 18 30 19 30 20C30 21 28 22 28 22" stroke="white" stroke-width="1.5" stroke-linecap="round"/>
  <path d="M12 18C12 18 10 19 10 20C10 21 12 22 12 22" stroke="white" stroke-width="1.5" stroke-linecap="round"/>
  
  <!-- Linear gradients definition -->
  <defs>
    <linearGradient id="paint0_linear_72_305" x1="18.75" y1="27.9167" x2="56.582" y2="1.3969" gradientUnits="userSpaceOnUse">
      <stop stop-color="#00205A"/>
      <stop offset="0.345" stop-color="#0075EC"/>
      <stop offset="0.925" stop-color="#79BBFF"/>
    </linearGradient>
    <linearGradient id="paint1_linear_72_305" x1="20" y1="0" x2="20" y2="40" gradientUnits="userSpaceOnUse">
      <stop stop-color="#3C4D55" stop-opacity="0"/>
      <stop offset="0.0001" stop-color="#3C4D55"/>
    </linearGradient>
  </defs>
</svg>